HIERARCHY
ROOT reference
{
  OFFSET 0 0 0
  CHANNELS 6 Xposition Yposition Zposition Zrotation Xrotation Yrotation
  JOINT Hips
  {
    OFFSET -30.589 89.712 166.535
    CHANNELS 6 Xposition Yposition Zposition Zrotation Xrotation Yrotation
    JOINT Spine
    {
      OFFSET 0 8.12958 0
      CHANNELS 6 Xposition Yposition Zposition Zrotation Xrotation Yrotation
      JOINT Spine1
      {
        OFFSET 0 26.3907 0
        CHANNELS 6 Xposition Yposition Zposition Zrotation Xrotation Yrotation
        JOINT Neck
        {
          OFFSET 0 26.2823 2.3893
          CHANNELS 6 Xposition Yposition Zposition Zrotation Xrotation Yrotation
          JOINT Head
          {
            OFFSET 0 13.8798 -1.98282
            CHANNELS 6 Xposition Yposition Zposition Zrotation Xrotation Yrotation
            End Site
            {
              OFFSET 0 24.7853 0
            }
          }
        }
        JOINT LeftShoulder
        {
          OFFSET 3.97789 23.5745 -0.27352
          CHANNELS 6 Xposition Yposition Zposition Zrotation Xrotation Yrotation
          JOINT LeftArm
          {
            OFFSET 13.7626 0 0
            CHANNELS 6 Xposition Yposition Zposition Zrotation Xrotation Yrotation
            JOINT LeftForeArm
            {
              OFFSET 26.1014 0 0
              CHANNELS 6 Xposition Yposition Zposition Zrotation Xrotation Yrotation
              JOINT LeftHand
              {
                OFFSET 29.9599 0 0
                CHANNELS 6 Xposition Yposition Zposition Zrotation Xrotation Yrotation
                End Site
                {
                  OFFSET 14.8712 0 0
                }
              }
            }
          }
        }
        JOINT RightShoulder
        {
          OFFSET -3.9517 23.5745 -0.27352
          CHANNELS 6 Xposition Yposition Zposition Zrotation Xrotation Yrotation
          JOINT RightArm
          {
            OFFSET -13.7626 0 0
            CHANNELS 6 Xposition Yposition Zposition Zrotation Xrotation Yrotation
            JOINT RightForeArm
            {
              OFFSET -26.1014 0 0
              CHANNELS 6 Xposition Yposition Zposition Zrotation Xrotation Yrotation
              JOINT RightHand
              {
                OFFSET -29.9599 0 0
                CHANNELS 6 Xposition Yposition Zposition Zrotation Xrotation Yrotation
                End Site
                {
                  OFFSET -14.8712 0 0
                }
              }
            }
          }
        }
      }
    }
    JOINT LeftUpLeg
    {
      OFFSET 9.91412 0 0
      CHANNELS 6 Xposition Yposition Zposition Zrotation Xrotation Yrotation
      JOINT LeftLeg
      {
        OFFSET 0 -41.4279 0
        CHANNELS 6 Xposition Yposition Zposition Zrotation Xrotation Yrotation
        JOINT LeftFoot
        {
          OFFSET 0 -41.0254 0
          CHANNELS 6 Xposition Yposition Zposition Zrotation Xrotation Yrotation
          JOINT LeftToeBase
          {
            OFFSET 0 -6.44418 14.8712
            CHANNELS 6 Xposition Yposition Zposition Zrotation Xrotation Yrotation
            End Site
            {
              OFFSET 0 0 3.96565
            }
          }
        }
      }
    }
    JOINT RightUpLeg
    {
      OFFSET -9.91412 0 0
      CHANNELS 6 Xposition Yposition Zposition Zrotation Xrotation Yrotation
      JOINT RightLeg
      {
        OFFSET 0 -41.4279 0
        CHANNELS 6 Xposition Yposition Zposition Zrotation Xrotation Yrotation
        JOINT RightFoot
        {
          OFFSET 0 -41.0254 0
          CHANNELS 6 Xposition Yposition Zposition Zrotation Xrotation Yrotation
          JOINT RightToeBase
          {
            OFFSET 0 -6.44418 14.8712
            CHANNELS 6 Xposition Yposition Zposition Zrotation Xrotation Yrotation
            End Site
            {
              OFFSET 0 0 3.96565
            }
          }
        }
      }
    }
  }
}
MOTION
Frames:	10
Frame Time:	0.004
0 0 0 0 0 -0 -28.8773 83.4941 -201.407 0.753735 -0.215193 4.16528 3.55271e-015 8.12958 0 -2.49339 -0.946656 -1.29983 0 26.3907 -2.84217e-014 2.04017 -5.28696 -1.18677 0 26.2823 2.3893 -1.42466 13.1964 -2.9385 0 13.8798 -1.98282 3.60614 -0.936959 -2.47135 3.97789 23.5745 -0.27352 10.5272 2.95844 -0.436939 13.7626 0 0 -14.4061 1.55363 2.64697 26.1014 0 0 0.467211 3.71938 -1.98504 29.9599 -2.84217e-014 2.84217e-014 11.4436 3.8019 0.744812 -3.9517 23.5745 -0.27352 -9.26894 0.317971 2.00477 -13.7626 0 2.84217e-014 19.8871 9.34824 -5.60138 -26.1014 5.68434e-014 5.68434e-014 -5.62679 -3.74374 -0.541307 -29.9599 0 0 -5.07613 -3.82551 1.24836 9.91412 0 0 -1.27259 5.22537 -0.984201 5.32907e-015 -41.4279 -2.84217e-014 0.991001 -3.63068 6.05318 -3.55271e-015 -41.0254 2.84217e-014 0.490906 -3.02177 4.37352 7.10543e-015 -6.44418 14.8712 -4.96962e-017 0 -1.59028e-015 -9.91412 0 0 0.092314 5.93401 -0.109081 0 -41.4279 0 0.0607303 -3.35528 3.44746 -3.55271e-015 -41.0254 0 -0.8014 -4.86289 -16.3787 0 -6.44418 14.8712 -0 -3.97569e-016 -0 
0 0 0 0 0 -0 -28.8808 83.4941 -201.407 0.753735 -0.215193 4.16528 3.55271e-015 8.12958 0 -2.49339 -0.946656 -1.29983 0 26.3907 -2.84217e-014 2.04017 -5.28696 -1.18677 0 26.2823 2.3893 -1.42925 13.2038 -2.93859 7.10543e-015 13.8798 -1.98282 3.60634 -0.950978 -2.47136 3.97789 23.5745 -0.27352 10.5438 2.95844 -0.436939 13.7626 0 -2.84217e-014 -14.3987 1.51407 2.64692 26.1014 0 2.84217e-014 0.449089 3.71318 -1.98503 29.9599 2.84217e-014 2.84217e-014 11.4686 3.79371 0.72625 -3.9517 23.5745 -0.27352 -9.26894 0.317971 2.00477 -13.7626 0 2.84217e-014 19.8881 9.35842 -5.60154 -26.1014 2.84217e-014 0 -5.63647 -3.75553 -0.537073 -29.9599 -2.84217e-014 2.84217e-014 -5.07707 -3.83636 1.23077 9.91412 0 0 -1.27075 5.22534 -1.00444 0 -41.4279 -2.84217e-014 0.990651 -3.63071 6.04765 3.55271e-015 -41.0254 2.84217e-014 0.491761 -3.02171 4.38974 -3.55271e-015 -6.44418 14.8712 1.98785e-016 3.97569e-016 -0 -9.91412 0 0 0.091113 5.93401 -0.097464 -7.10543e-015 -41.4279 0 0.0601535 -3.35531 3.4376 3.55271e-015 -41.0254 0 -0.815044 -4.86269 -16.3868 0 -6.44418 14.8712 2.48481e-016 3.97569e-016 1.59028e-015 
0 0 0 0 0 -0 -28.8875 83.4941 -201.407 0.754582 -0.226826 4.16529 -3.55271e-015 8.12958 0 -2.49307 -0.932574 -1.29982 0 26.3907 0 2.04017 -5.28696 -1.18677 3.55271e-015 26.2823 2.3893 -1.44783 13.2219 -2.93881 0 13.8798 -1.98282 3.61617 -0.980237 -2.47138 3.97789 23.5745 -0.27352 10.534 2.94735 -0.436935 13.7626 0 2.84217e-014 -14.3836 1.54666 2.64696 26.1014 -2.84217e-014 0 0.449091 3.6778 -1.98495 29.9599 -2.84217e-014 0 11.4648 3.75786 0.721742 -3.9517 23.5745 -0.27352 -9.26896 0.317971 2.00826 -13.7626 -2.84217e-014 0 19.8905 9.3693 -5.6094 -26.1014 0 0 -5.64511 -3.75195 -0.531093 -29.9599 0 0 -5.0839 -3.83285 1.23668 9.91412 -1.42109e-014 0 -1.26205 5.22534 -1.00536 -1.77636e-015 -41.4279 0 0.988883 -3.61828 6.04055 0 -41.0254 -2.84217e-014 0.50508 -3.03163 4.40518 0 -6.44418 14.8712 4.96962e-017 0 -1.59028e-015 -9.91412 0 0 0.096065 5.94457 -0.097445 7.10543e-015 -41.4279 -2.84217e-014 0.061512 -3.35715 3.45884 0 -41.0254 0 -0.833043 -4.86245 -16.3963 0 -6.44418 14.8712 -0 0 3.18055e-015 
0 0 0 0 0 -0 -28.8926 83.4941 -201.407 0.754677 -0.228122 4.16529 1.77636e-015 8.12958 0 -2.49306 -0.931965 -1.29982 0 26.3907 -2.84217e-014 2.04017 -5.28696 -1.18677 3.55271e-015 26.2823 2.3893 -1.45194 13.2172 -2.93875 0 13.8798 -1.98282 3.61083 -0.987671 -2.47138 3.97789 23.5745 -0.27352 10.5393 2.942 -0.436453 13.7626 -2.84217e-014 2.84217e-014 -14.375 1.56102 2.64698 26.1014 -2.84217e-014 0 0.453374 3.65675 -1.9849 29.9599 2.84217e-014 0 11.4663 3.7375 0.727835 -3.9517 23.5745 -0.27352 -9.26902 0.317969 2.01887 -13.7626 0 0 19.8904 9.34169 -5.61974 -26.1014 0 2.84217e-014 -5.66095 -3.72644 -0.525779 -29.9599 -2.84217e-014 2.84217e-014 -5.0639 -3.80801 1.26094 9.91412 -1.42109e-014 0 -1.25883 5.22534 -1.00544 -1.77636e-015 -41.4279 0 0.999505 -3.61293 6.03832 -7.10543e-015 -41.0254 2.84217e-014 0.499283 -3.03862 4.38962 3.55271e-015 -6.44418 14.8712 -9.93923e-017 0 3.18055e-015 -9.91412 0 0 0.100834 5.93808 -0.096279 0 -41.4279 2.84217e-014 0.0670097 -3.34259 3.46811 -3.55271e-015 -41.0254 0 -0.841759 -4.86174 -16.4251 0 -6.44418 14.8712 3.47873e-016 3.97569e-016 1.59028e-015 
0 0 0 0 0 -0 -28.8957 83.4941 -201.409 0.755544 -0.240029 4.16529 0 8.12958 -2.84217e-014 -2.50281 -0.919562 -1.29982 0 26.3907 2.84217e-014 2.04017 -5.28696 -1.18677 0 26.2823 2.3893 -1.45963 13.2275 -2.93888 0 13.8798 -1.98282 3.60644 -1.00639 -2.4714 3.97789 23.5745 -0.27352 10.5495 2.93041 -0.435787 13.7626 2.84217e-014 0 -14.3727 1.53202 2.64695 26.1014 0 0 0.444421 3.67275 -1.98494 29.9599 0 2.84217e-014 11.4726 3.75321 0.725873 -3.9517 23.5745 -0.27352 -9.269 0.317969 2.01548 -13.7626 -2.84217e-014 0 19.8928 9.34668 -5.62391 -26.1014 0 -2.84217e-014 -5.66996 -3.7223 -0.520586 -29.9599 -2.84217e-014 0 -5.06052 -3.80358 1.25972 9.91412 -1.42109e-014 -2.84217e-014 -1.25475 5.22531 -1.0191 0 -41.4279 0 0.99077 -3.59817 6.05874 3.55271e-015 -41.0254 -2.84217e-014 0.502106 -3.04627 4.39547 0 -6.44418 14.8712 -0 0 1.59028e-015 -9.91412 0 -2.84217e-014 0.102943 5.94975 -0.094942 0 -41.4279 0 0.070053 -3.34533 3.44629 3.55271e-015 -41.0254 -2.84217e-014 -0.847881 -4.86216 -16.4003 1.42109e-014 -6.44418 14.8712 -4.96962e-017 0 -0 
0 0 0 0 0 -0 -28.9021 83.4941 -201.413 0.755084 -0.233652 4.16641 0 8.12958 0 -2.50464 -0.92207 -1.29982 0 26.3907 0 2.04017 -5.28696 -1.18677 -3.55271e-015 26.2823 2.3893 -1.46308 13.2265 -2.93461 0 13.8798 -1.98282 3.59005 -1.00968 -2.46923 3.97789 23.5745 -0.27352 10.5498 2.937 -0.435083 13.7626 0 0 -14.3566 1.52329 2.64693 26.1014 0 2.84217e-014 0.440023 3.67527 -1.98495 29.9599 0 0 11.479 3.75463 0.715231 -3.9517 23.5745 -0.27352 -9.27192 0.317968 2.02229 -13.7626 -2.84217e-014 0 19.8942 9.33963 -5.63232 -26.1014 2.84217e-014 0 -5.67477 -3.71445 -0.510779 -29.9599 0 0 -5.0686 -3.79576 1.26961 9.91412 0 -2.84217e-014 -1.25297 5.21303 -1.01099 1.77636e-015 -41.4279 0 0.991887 -3.60654 6.06016 -7.10543e-015 -41.0254 2.84217e-014 0.484302 -3.03878 4.3776 3.55271e-015 -6.44418 14.8712 1.98785e-016 1.98785e-016 -1.59028e-015 -9.91412 0 -2.84217e-014 0.104502 5.93312 -0.093873 3.55271e-015 -41.4279 0 0.065311 -3.33276 3.46505 0 -41.0254 0 -0.851145 -4.86375 -16.4167 0 -6.44418 14.8712 -4.96962e-017 -3.97569e-016 1.59028e-015 
0 0 0 0 0 -0 -28.9062 83.4941 -201.418 0.755309 -0.236683 4.16743 -1.77636e-015 8.12958 -2.84217e-014 -2.50366 -0.9183 -1.29982 0 26.3907 -2.84217e-014 2.04032 -5.27993 -1.18676 -7.10543e-015 26.2823 2.3893 -1.48411 13.2278 -2.92835 -7.10543e-015 13.8798 -1.98282 3.60822 -1.04655 -2.45862 3.97789 23.5745 -0.27352 10.5455 2.93101 -0.434465 13.7626 -2.84217e-014 2.84217e-014 -14.3441 1.54488 2.64696 26.1014 0 0 0.446705 3.67656 -1.98811 29.9599 0 2.84217e-014 11.4356 3.75555 0.713109 -3.9517 23.5745 -0.27352 -9.27423 0.317965 2.03783 -13.7626 -2.84217e-014 -2.84217e-014 19.8934 9.30771 -5.64829 -26.1014 2.84217e-014 0 -5.68094 -3.69382 -0.507117 -29.9599 0 2.84217e-014 -5.04452 -3.77585 1.29543 9.91412 1.42109e-014 -2.84217e-014 -1.24977 5.21754 -1.02044 0 -41.4279 -2.84217e-014 0.991848 -3.6012 6.06342 -3.55271e-015 -41.0254 0 0.498501 -3.04135 4.38802 0 -6.44418 14.8712 -9.93923e-017 0 -3.18055e-015 -9.91412 0 0 0.104635 5.94219 -0.083409 7.10543e-015 -41.4279 0 0.073833 -3.33901 3.43613 -7.10543e-015 -41.0254 2.84217e-014 -0.846404 -4.86768 -16.4064 0 -6.44418 14.8712 -1.49089e-016 3.97569e-016 1.59028e-015 
0 0 0 0 0 -0 -28.9108 83.4941 -201.424 0.7557 -0.241974 4.16866 -3.55271e-015 8.12958 2.84217e-014 -2.50229 -0.916176 -1.29982 0 26.3907 0 2.04042 -5.27503 -1.18675 0 26.2823 2.3893 -1.47888 13.2295 -2.92442 0 13.8798 -1.98282 3.58115 -1.04836 -2.45999 3.97789 23.5745 -0.27352 10.5527 2.90589 -0.434066 13.7626 5.68434e-014 -2.84217e-014 -14.3392 1.56105 2.64698 26.1014 -2.84217e-014 2.84217e-014 0.48302 3.61677 -2.0042 29.9599 0 0 10.9154 3.67755 0.548913 -3.9517 23.5745 -0.27352 -9.27643 0.318517 2.02649 -13.7626 -2.84217e-014 -2.84217e-014 19.8878 9.34083 -5.641 -26.1014 -2.84217e-014 -2.84217e-014 -5.6865 -3.71495 -0.499221 -29.9599 0 0 -5.06695 -3.7961 1.27767 9.91412 0 2.84217e-014 -1.25017 5.21806 -1.01902 -1.77636e-015 -41.4279 0 0.991559 -3.59524 6.0614 0 -41.0254 2.84217e-014 0.486912 -3.05642 4.38369 -3.55271e-015 -6.44418 14.8712 3.47873e-016 -7.95139e-016 1.59028e-015 -9.91412 0 0 0.104472 5.94243 -0.0868374 7.10543e-015 -41.4279 0 0.0708764 -3.33945 3.4599 0 -41.0254 0 -0.839779 -4.87742 -16.4137 0 -6.44418 14.8712 1.98785e-016 3.97569e-016 -0 
0 0 0 0 0 -0 -28.9148 83.4941 -201.428 0.756231 -0.249152 4.17041 -1.77636e-015 8.12958 0 -2.50065 -0.902854 -1.29981 -3.55271e-015 26.3907 2.84217e-014 2.04046 -5.27306 -1.18674 0 26.2823 2.3893 -1.47064 13.2309 -2.92087 0 13.8798 -1.98282 3.56144 -1.04959 -2.45596 3.97789 23.5745 -0.27352 10.563 2.92229 -0.434046 13.7626 2.84217e-014 0 -14.3285 1.52742 2.64694 26.1014 0 0 0.487082 3.62594 -1.99515 29.9599 0 2.84217e-014 10.7652 3.67042 0.382808 -3.9517 23.5745 -0.27352 -9.27867 0.32796 2.02587 -13.7626 0 -2.84217e-014 19.8811 9.3133 -5.63651 -26.1014 -2.84217e-014 0 -5.68946 -3.7127 -0.500535 -29.9599 -5.68434e-014 0 -5.06247 -3.79489 1.3007 9.91412 0 -2.84217e-014 -1.252 5.21798 -1.02648 -1.77636e-015 -41.4279 -2.84217e-014 0.99176 -3.59975 6.04762 3.55271e-015 -41.0254 -2.84217e-014 0.492378 -3.03431 4.41014 -7.10543e-015 -6.44418 14.8712 -2.48481e-016 3.97569e-016 1.59028e-015 -9.91412 0 0 0.104416 5.94103 -0.084188 3.55271e-015 -41.4279 0 0.0727251 -3.33981 3.44738 0 -41.0254 0 -0.860678 -4.87801 -16.4019 0 -6.44418 14.8712 4.96962e-017 7.95139e-016 3.18055e-015 
0 0 0 0 0 -0 -28.9205 83.4941 -201.433 0.75646 -0.251963 4.17583 1.77636e-015 8.12958 0 -2.49962 -0.89893 -1.29981 0 26.3907 0 2.04149 -5.27166 -1.18674 0 26.2823 2.3893 -1.48874 13.2316 -2.91695 7.10543e-015 13.8798 -1.98282 3.56934 -1.05871 -2.45182 3.97789 23.5745 -0.27352 10.5615 2.91077 -0.434514 13.7626 2.84217e-014 0 -14.3138 1.54109 2.64697 26.1014 -2.84217e-014 2.84217e-014 0.484635 3.64419 -2.00265 29.9599 -2.84217e-014 0 10.7656 3.68949 0.391724 -3.9517 23.5745 -0.27352 -9.27981 0.325539 2.02605 -13.7626 -2.84217e-014 0 19.8733 9.28933 -5.64935 -26.1014 2.84217e-014 0 -5.69094 -3.70879 -0.488952 -29.9599 2.84217e-014 -2.84217e-014 -5.08973 -3.79097 1.30681 9.91412 -1.42109e-014 2.84217e-014 -1.23956 5.21772 -1.03284 -5.32907e-015 -41.4279 -2.84217e-014 0.994061 -3.58992 6.08934 0 -41.0254 2.84217e-014 0.501344 -3.04436 4.36623 0 -6.44418 14.8712 -4.96962e-017 1.98785e-016 -1.59028e-015 -9.91412 1.42109e-014 2.84217e-014 0.111662 5.93992 -0.0805318 -7.10543e-015 -41.4279 0 0.0809778 -3.33992 3.45734 3.55271e-015 -41.0254 2.84217e-014 -0.869927 -4.85837 -16.4194 0 -6.44418 14.8712 -1.98785e-016 0 1.59028e-015 
